<?xml version="1.0" encoding="UTF-8" standalone="no"?>
<svg
   xmlns:dc="http://purl.org/dc/elements/1.1/"
   xmlns:cc="http://creativecommons.org/ns#"
   xmlns:rdf="http://www.w3.org/1999/02/22-rdf-syntax-ns#"
   xmlns:svg="http://www.w3.org/2000/svg"
   xmlns="http://www.w3.org/2000/svg"
   viewBox="800 300 1 800"
   height="740"
   width="1000"
   xml:space="preserve"
   id="svg2"
   version="1.1"><metadata
     id="metadata8"><rdf:RDF><cc:Work
         rdf:about=""><dc:format>image/svg+xml</dc:format><dc:type
           rdf:resource="http://purl.org/dc/dcmitype/StillImage" /></cc:Work></rdf:RDF></metadata><defs
     id="defs6"><clipPath
       id="clipPath18"
       clipPathUnits="userSpaceOnUse"><path
         id="path16"
         d="M 0,1000 H 1200 V 0 H 0 Z" /></clipPath></defs><g
     transform="matrix(1.3333333,0,0,-1.3333333,0,1333.3333)"
     id="g10"><g
       id="g12"><g
         clip-path="url(#clipPath18)"
         id="g14"><g
           transform="translate(332.3951,660.4758)"
           id="g20"><path
             id="path22"
             style="fill:#00a0ff;fill-opacity:1;fill-rule:nonzero;stroke:none"
             d="m 0,0 c 0,-27.061 -21.937,-48.998 -48.998,-48.998 -27.061,0 -48.998,21.937 -48.998,48.998 0,27.061 21.937,48.998 48.998,48.998 C -21.937,48.998 0,27.061 0,0" /></g><g
           transform="translate(454.2911,660.4758)"
           id="g24"><path
             id="path26"
             style="fill:#00b4ff;fill-opacity:1;fill-rule:nonzero;stroke:none"
             d="m 0,0 c 0,-27.061 -21.937,-48.998 -48.998,-48.998 -27.061,0 -48.998,21.937 -48.998,48.998 0,27.061 21.937,48.998 48.998,48.998 C -21.937,48.998 0,27.061 0,0" /></g><g
           transform="translate(576.1871,660.4758)"
           id="g28"><path
             id="path30"
             style="fill:#00c8ff;fill-opacity:1;fill-rule:nonzero;stroke:none"
             d="m 0,0 c 0,-27.061 -21.937,-48.998 -48.998,-48.998 -27.061,0 -48.998,21.937 -48.998,48.998 0,27.061 21.937,48.998 48.998,48.998 C -21.937,48.998 0,27.061 0,0" /></g><g
           transform="translate(454.2911,536.7696)"
           id="g32"><path
             id="path34"
             style="fill:#00b4ff;fill-opacity:1;fill-rule:nonzero;stroke:none"
             d="m 0,0 c 0,-27.061 -21.937,-48.998 -48.998,-48.998 -27.061,0 -48.998,21.937 -48.998,48.998 0,27.061 21.937,48.998 48.998,48.998 C -21.937,48.998 0,27.061 0,0" /></g><g
           transform="translate(821.812,660.4758)"
           id="g36"><path
             id="path38"
             style="fill:#00f0ff;fill-opacity:1;fill-rule:nonzero;stroke:none"
             d="m 0,0 c 0,-27.061 -21.937,-48.998 -48.998,-48.998 -27.061,0 -48.998,21.937 -48.998,48.998 0,27.061 21.937,48.998 48.998,48.998 C -21.937,48.998 0,27.061 0,0" /></g><g
           transform="translate(943.7079,660.4758)"
           id="g40"><path
             id="path42"
             style="fill:#00ffff;fill-opacity:1;fill-rule:nonzero;stroke:none"
             d="m 0,0 c 0,-27.061 -21.937,-48.998 -48.998,-48.998 -27.061,0 -48.998,21.937 -48.998,48.998 0,27.061 21.937,48.998 48.998,48.998 C -21.937,48.998 0,27.061 0,0" /></g><g
           transform="translate(699.916,536.7696)"
           id="g44"><path
             id="path46"
             style="fill:#00dcff;fill-opacity:1;fill-rule:nonzero;stroke:none"
             d="m 0,0 c 0,-27.061 -21.937,-48.998 -48.998,-48.998 -27.061,0 -48.998,21.937 -48.998,48.998 0,27.061 21.937,48.998 48.998,48.998 C -21.937,48.998 0,27.061 0,0" /></g><g
           transform="translate(821.812,536.7696)"
           id="g48"><path
             id="path50"
             style="fill:#00f0ff;fill-opacity:1;fill-rule:nonzero;stroke:none"
             d="m 0,0 c 0,-27.061 -21.937,-48.998 -48.998,-48.998 -27.061,0 -48.998,21.937 -48.998,48.998 0,27.061 21.937,48.998 48.998,48.998 C -21.937,48.998 0,27.061 0,0" /></g><g
           transform="translate(272.4277,419.5439)"
           id="g52"><path
             id="path54"
             style="fill:#000000;fill-opacity:1;fill-rule:nonzero;stroke:none"
             d="M 0,0 V -64.508 H -12.88 V 0 H -36.02 V 11.789 H 23.14 L 23.14,0 Z" /></g><g
           transform="translate(426.875,355.0361)"
           id="g56"><path
             id="path58"
             style="fill:#000000;fill-opacity:1;fill-rule:nonzero;stroke:none"
             d="m 0,0 h -13.098 v 30.126 l -28.379,46.171 h 14.08 l 20.848,-34.71 20.848,34.71 h 14.08 L 0,30.126 Z" /></g><g
           transform="translate(587.1079,366.7148)"
           id="g60"><path
             id="path62"
             style="fill:#000000;fill-opacity:1;fill-rule:nonzero;stroke:none"
             d="m 0,0 c 4.437,0 8.258,0.746 11.461,2.238 3.201,1.491 6.549,3.875 10.041,7.15 L 29.798,0.874 C 21.721,-8.077 11.915,-12.552 0.382,-12.552 c -11.534,0 -21.104,3.711 -28.707,11.133 -7.604,7.423 -11.406,16.81 -11.406,28.161 0,11.352 3.875,20.811 11.625,28.38 7.75,7.566 17.535,11.352 29.361,11.352 11.825,0 21.703,-4.367 29.635,-13.099 l -8.186,-8.95 c -3.64,3.493 -7.079,5.929 -10.315,7.313 -3.239,1.381 -7.04,2.074 -11.407,2.074 -7.713,0 -14.189,-2.494 -19.428,-7.477 -5.24,-4.985 -7.859,-11.352 -7.859,-19.102 0,-7.75 2.6,-14.226 7.804,-19.428 C -13.299,2.602 -7.132,0 0,0" /></g><g
           transform="translate(719.9434,355.0361)"
           id="g64"><path
             id="path66"
             style="fill:#000000;fill-opacity:1;fill-rule:nonzero;stroke:none"
             d="M 0,0 V 76.297 H 12.88 V 43.224 h 37.875 v 33.073 h 12.88 V 0 H 50.755 V 31.217 H 12.88 L 12.88,0 Z" /></g><g
           transform="translate(945.667,431.333)"
           id="g68"><path
             id="path70"
             style="fill:#000000;fill-opacity:1;fill-rule:nonzero;stroke:none"
             d="M 0,0 V -12.116 H -40.713 V -32.31 H -4.147 V -43.77 H -40.713 V -64.181 H 1.31 V -76.297 H -53.593 V 0 Z" /></g><g
           transform="translate(248.3096,319.0576)"
           id="g72"><path
             id="path74"
             style="fill:#000000;fill-opacity:1;fill-rule:nonzero;stroke:none"
             d="m 0,0 c -1.528,0 -2.78,-0.312 -3.759,-0.934 -0.978,-0.623 -1.468,-1.564 -1.468,-2.825 0,-1.261 0.49,-2.223 1.468,-2.89 0.979,-0.668 3.062,-1.387 6.25,-2.158 3.187,-0.771 5.589,-1.854 7.206,-3.247 1.616,-1.394 2.424,-3.448 2.424,-6.161 0,-2.714 -1.023,-4.915 -3.069,-6.605 -2.046,-1.691 -4.73,-2.535 -8.051,-2.535 -4.864,0 -9.179,1.674 -12.944,5.026 l 3.291,3.959 c 3.143,-2.73 6.405,-4.093 9.786,-4.093 1.691,0 3.032,0.363 4.026,1.09 0.993,0.727 1.49,1.69 1.49,2.892 0,1.2 -0.467,2.134 -1.401,2.801 -0.935,0.667 -2.543,1.276 -4.827,1.825 -2.283,0.547 -4.018,1.051 -5.204,1.511 -1.186,0.46 -2.239,1.061 -3.158,1.802 -1.839,1.394 -2.758,3.529 -2.758,6.405 0,2.876 1.045,5.094 3.136,6.651 C -5.471,4.07 -2.884,4.849 0.2,4.849 2.187,4.849 4.159,4.522 6.116,3.87 8.073,3.218 9.764,2.298 11.187,1.112 L 8.385,-2.847 C 7.465,-2.017 6.22,-1.334 4.648,-0.801 3.076,-0.267 1.527,0 0,0" /></g><g
           transform="translate(342.4766,315.8105)"
           id="g76"><path
             id="path78"
             style="fill:#000000;fill-opacity:1;fill-rule:nonzero;stroke:none"
             d="m 0,0 c -2.121,2.194 -4.723,3.292 -7.807,3.292 -3.084,0 -5.686,-1.098 -7.806,-3.292 -2.12,-2.194 -3.18,-4.855 -3.18,-7.984 0,-3.129 1.06,-5.79 3.18,-7.985 2.12,-2.194 4.722,-3.292 7.806,-3.292 3.084,0 5.686,1.098 7.807,3.292 2.12,2.195 3.181,4.856 3.181,7.985 C 3.181,-4.855 2.12,-2.194 0,0 m 3.848,-19.461 c -3.144,-3.068 -7.029,-4.603 -11.655,-4.603 -4.626,0 -8.511,1.535 -11.653,4.603 -3.144,3.069 -4.716,6.896 -4.716,11.477 0,4.582 1.572,8.407 4.716,11.476 3.142,3.07 7.027,4.604 11.653,4.604 4.626,0 8.511,-1.534 11.655,-4.604 3.143,-3.069 4.715,-6.894 4.715,-11.476 0,-4.581 -1.572,-8.408 -4.715,-11.477" /></g><g
           transform="translate(416.2935,318.2568)"
           id="g80"><path
             id="path82"
             style="fill:#000000;fill-opacity:1;fill-rule:nonzero;stroke:none"
             d="m 0,0 v -8.54 h 13.79 v -4.849 H 0 v -12.81 H -5.249 V 4.894 H 15.479 L 15.435,0 Z" /></g><g
           transform="translate(503.0317,318.3467)"
           id="g84"><path
             id="path86"
             style="fill:#000000;fill-opacity:1;fill-rule:nonzero;stroke:none"
             d="M 0,0 V -26.289 H -5.249 V 0 h -9.43 V 4.804 H 9.43 L 9.43,0 Z" /></g><g
           transform="translate(581.23,300.7764)"
           id="g88"><path
             id="path90"
             style="fill:#000000;fill-opacity:1;fill-rule:nonzero;stroke:none"
             d="m 0,0 6.939,22.374 h 4.715 L 18.593,0 26.422,22.374 h 5.649 L 21.217,-8.719 H 16.013 L 9.475,12.588 H 9.119 L 2.58,-8.719 h -5.205 l -10.853,31.093 h 5.649 z" /></g><g
           transform="translate(687.8965,303.9785)"
           id="g92"><path
             id="path94"
             style="fill:#000000;fill-opacity:1;fill-rule:nonzero;stroke:none"
             d="M 0,0 -5.648,12.811 -11.298,0 Z m -13.433,-4.849 -3.114,-7.072 h -5.604 l 13.7,31.093 h 5.604 L 10.854,-11.921 H 5.249 l -3.113,7.072 z" /></g><g
           transform="translate(774.2793,308.6494)"
           id="g96"><path
             id="path98"
             style="fill:#000000;fill-opacity:1;fill-rule:nonzero;stroke:none"
             d="m 0,0 c 1.068,0.919 1.602,2.395 1.602,4.426 0,2.031 -0.549,3.425 -1.646,4.181 -1.098,0.756 -3.055,1.134 -5.872,1.134 h -6.672 v -11.12 h 6.539 C -3.084,-1.379 -1.067,-0.92 0,0 m 6.984,4.403 c 0,-5.131 -2.239,-8.362 -6.716,-9.697 L 8.407,-16.592 H 1.735 l -7.428,10.453 h -6.895 v -10.453 h -5.249 v 31.093 h 11.566 c 4.744,0 8.14,-0.801 10.186,-2.402 2.046,-1.602 3.069,-4.166 3.069,-7.696" /></g><g
           transform="translate(864.043,323.1504)"
           id="g100"><path
             id="path102"
             style="fill:#000000;fill-opacity:1;fill-rule:nonzero;stroke:none"
             d="m 0,0 v -4.937 h -16.592 v -8.23 H -1.69 v -4.67 h -14.902 v -8.318 H 0.533 v -4.938 H -21.841 V 0 Z" /></g><g
           transform="translate(934.0791,319.0576)"
           id="g104"><path
             id="path106"
             style="fill:#000000;fill-opacity:1;fill-rule:nonzero;stroke:none"
             d="m 0,0 c -1.527,0 -2.78,-0.312 -3.759,-0.934 -0.978,-0.623 -1.468,-1.564 -1.468,-2.825 0,-1.261 0.49,-2.223 1.468,-2.89 0.979,-0.668 3.062,-1.387 6.25,-2.158 3.188,-0.771 5.589,-1.854 7.206,-3.247 1.616,-1.394 2.424,-3.448 2.424,-6.161 0,-2.714 -1.023,-4.915 -3.069,-6.605 -2.046,-1.691 -4.731,-2.535 -8.051,-2.535 -4.864,0 -9.179,1.674 -12.944,5.026 l 3.292,3.959 c 3.142,-2.73 6.405,-4.093 9.785,-4.093 1.69,0 3.032,0.363 4.026,1.09 0.993,0.727 1.49,1.69 1.49,2.892 0,1.2 -0.467,2.134 -1.401,2.801 -0.935,0.667 -2.543,1.276 -4.826,1.825 -2.284,0.547 -4.019,1.051 -5.205,1.511 -1.187,0.46 -2.239,1.061 -3.158,1.802 -1.839,1.394 -2.758,3.529 -2.758,6.405 0,2.876 1.046,5.094 3.136,6.651 2.09,1.556 4.677,2.335 7.762,2.335 1.987,0 3.959,-0.327 5.916,-0.979 C 8.073,3.218 9.764,2.298 11.188,1.112 L 8.385,-2.847 C 7.465,-2.017 6.22,-1.334 4.648,-0.801 3.076,-0.267 1.527,0 0,0" /></g></g></g></g></svg>
